<?xml version="1.0" standalone="no"?>
<!DOCTYPE svg PUBLIC "-//W3C//DTD SVG 20010904//EN"
 "http://www.w3.org/TR/2001/REC-SVG-20010904/DTD/svg10.dtd">
<svg version="1.0" xmlns="http://www.w3.org/2000/svg"
 width="600.000000pt" height="600.000000pt" viewBox="0 0 600.000000 600.000000"
 preserveAspectRatio="xMidYMid meet">

<g transform="translate(0.000000,600.000000) scale(0.100000,-0.100000)"
fill="#000000" stroke="none">
<path d="M2607 5710 c-259 -44 -485 -198 -719 -491 -147 -184 -184 -259 -213
-438 -22 -133 -16 -393 15 -594 l21 -139 -65 -59 c-94 -86 -118 -141 -124
-280 -7 -175 30 -356 95 -453 37 -57 112 -135 155 -162 31 -20 38 -30 38 -57
0 -60 51 -222 106 -337 l55 -115 -36 -135 -37 -135 -147 -150 c-81 -82 -169
-178 -195 -213 -111 -146 -205 -339 -255 -522 -47 -170 -51 -240 -51 -852 l0
-578 1060 0 c583 0 1060 3 1060 8 0 4 -33 205 -73 448 l-73 440 211 12 c198
11 375 33 545 65 41 8 76 14 77 14 0 -1 3 -45 5 -97 l3 -95 -214 -22 c-187
-20 -219 -26 -257 -48 -46 -27 -87 -87 -98 -142 -3 -20 14 -135 44 -300 27
-148 50 -271 50 -276 0 -4 120 -6 267 -5 l268 3 14 29 c17 36 6 71 -30 98 -25
19 -28 19 -197 1 l-171 -19 -11 56 c-6 30 -13 65 -16 77 -2 13 -1 23 3 23 5 0
87 9 183 20 165 18 176 21 198 45 26 31 28 62 6 93 -28 41 -42 42 -230 22 -98
-11 -182 -20 -185 -20 -4 0 -12 30 -19 66 -11 55 -10 68 1 79 20 20 724 94
740 78 22 -22 59 -283 66 -470 l6 -183 243 0 c225 0 242 1 238 18 -2 9 -27
163 -55 342 -109 695 -206 1083 -344 1365 -82 170 -157 270 -322 433 l-135
133 -41 155 -42 154 52 108 c48 99 93 235 108 323 4 29 12 39 38 50 50 21 160
140 196 213 54 110 74 204 75 351 1 174 -16 220 -122 324 l-74 74 21 131 c57
360 49 627 -25 793 -163 370 -636 645 -1265 737 -112 17 -339 20 -422 6z
m1165 -552 c85 -41 132 -77 189 -144 49 -59 119 -197 119 -236 0 -36 -40 -78
-75 -78 -45 0 -65 19 -100 95 -36 79 -97 153 -158 192 -21 13 -72 32 -113 43
-42 10 -84 26 -95 36 -26 23 -24 75 3 109 20 26 24 27 89 23 50 -4 87 -14 141
-40z m-1077 -584 c363 -74 420 -89 477 -125 59 -38 98 -90 135 -181 15 -38 42
-86 59 -106 l30 -36 140 -8 c76 -4 166 -15 199 -23 170 -43 280 -205 300 -440
4 -39 2 -198 -3 -355 l-9 -285 -35 -101 c-42 -122 -117 -261 -205 -378 -117
-156 -383 -374 -520 -426 -32 -12 -99 -29 -150 -38 l-92 -15 -78 32 c-103 43
-240 121 -333 189 -74 55 -136 114 -255 242 -33 36 -113 106 -177 155 l-117
90 -30 80 c-63 167 -71 239 -62 575 9 301 7 295 108 472 75 133 82 165 87 413
5 201 17 290 46 344 11 21 9 21 485 -75z m-945 -719 c0 -3 11 -71 25 -151 18
-106 25 -182 25 -281 0 -135 0 -136 -20 -118 -59 54 -105 230 -98 385 3 83 7
103 28 134 22 32 40 46 40 31z m2557 -53 c26 -43 28 -55 28 -152 0 -151 -35
-268 -105 -350 l-29 -35 -1 153 c0 134 4 170 31 297 18 80 36 142 40 139 5 -3
21 -26 36 -52z m-1567 -1870 c61 -20 101 -26 214 -30 171 -6 265 9 398 63 15
6 13 -5 -11 -72 -16 -43 -34 -101 -40 -129 l-12 -52 -90 -7 c-105 -8 -123 -19
-115 -74 19 -134 18 -148 -6 -155 -35 -9 -128 -7 -178 5 -77 17 -160 60 -165
83 -2 12 -11 66 -20 121 -20 121 -40 196 -67 249 -19 37 -19 38 -1 31 10 -4
52 -19 93 -33z m1190 -304 c1 -18 7 -50 14 -70 16 -44 23 -40 -108 -63 -157
-27 -327 -45 -476 -52 l-145 -6 0 74 1 74 329 36 c423 47 385 46 385 7z m239
-356 c8 -68 12 -125 9 -127 -8 -8 -359 -74 -478 -90 -74 -10 -228 -19 -377
-22 l-251 -6 -6 44 c-9 60 -26 221 -26 238 0 11 11 12 51 8 73 -9 406 10 585
33 145 19 453 76 464 86 8 9 16 -37 29 -164z"/>
<path d="M2385 3833 c-77 -9 -152 -26 -173 -39 -52 -34 -48 -110 9 -139 24
-13 37 -13 106 2 97 21 289 24 355 4 26 -7 65 -29 88 -48 l40 -35 0 -255 0
-255 29 -29 c36 -36 73 -37 106 -4 l25 24 0 276 c0 314 0 316 -85 394 -55 50
-110 77 -203 96 -60 13 -220 18 -297 8z"/>
<path d="M3360 3834 c-61 -12 -136 -37 -152 -51 -26 -23 -32 -70 -13 -99 27
-41 55 -46 147 -22 92 23 170 21 252 -7 57 -20 97 -9 115 31 39 87 -47 144
-229 149 -52 2 -106 1 -120 -1z"/>
<path d="M2435 3535 c-56 -55 -18 -149 59 -149 78 0 116 94 61 149 -33 34 -87
34 -120 0z"/>
<path d="M3435 3535 c-48 -47 -21 -135 44 -150 65 -14 125 56 102 118 -22 58
-103 76 -146 32z"/>
<path d="M2666 2777 c-33 -34 -34 -79 -3 -111 31 -31 142 -57 267 -63 104 -5
270 22 316 51 47 31 43 107 -8 135 -24 14 -34 13 -100 -3 -111 -27 -210 -31
-298 -11 -138 30 -146 30 -174 2z"/>
</g>
</svg>
